<?xml version="1.0" encoding="UTF-8"?>
<svg id="Capa_2" xmlns="http://www.w3.org/2000/svg" viewBox="0 0 1015.26 280.69">
  <defs>
    <style>
      .cls-1 {
        fill: #ef7e45;
      }
    </style>
  </defs>
  <g id="Capa_1-2" data-name="Capa_1">
    <g>
      <g>
        <path class="cls-1" d="M963.15,15.98c-15,15-5.39,26.27,18.14,33.07,3.89,1.12,26.85,12.72,29.7,9.63,10.64-11.52-26.39-64.15-47.84-42.7Z"/>
        <path class="cls-1" d="M942.45,71.05c-1.38-.59-1.66-2.42-.51-3.39,8.88-7.46,35.34-26.36,60.7,16.64,31.62,53.61-4.7,65.23-16.71,60.8-21.04-7.76-18.78-30.15-19.24-43.46-.73-21.21-18.39-28.09-24.24-30.6Z"/>
      </g>
      <g>
        <path class="cls-1" d="M678.49,125.48c-1.95.38-3.4-1.77-2.32-3.45,7.06-11,21.39-41.87,60.79-41.87s57.25,21.42,57.25,37.75c0,12.26-11.69,29.95-31.37,22.65-16.42-6.09-15.34-27.41-36.65-27.41-24.73,0-36.44,10.16-47.7,12.32Z"/>
        <path class="cls-1" d="M677.34,148.6c-.42-.9-1.76-.68-1.87.31-1.48,13.54-5.82,57.81,35.6,57.65,31.63.15,37.94-13.19,54.74-13.19s6.11,13.34,26.54,13.34,2.69-51.49-7.72-50.56c-22.16,1.98-37.69,21.34-66.3,21.34-23.33,0-36.86-20.09-41-28.9Z"/>
      </g>
      <g>
        <g>
          <path class="cls-1" d="M152.31,87.7s34.82-14.77,34.82,29.41-59.17,45.43-59.17,76.09,70.09,14.36,93.5-27.29c18.59-33.08,2.98-106.62-69.16-78.21Z"/>
          <path class="cls-1" d="M73.81,47.95s-15,10.18,2.66,27.07c14.82,14.18,15.58,41.69,9.97,62.19-5.58,20.41-36.31,62.92-27.54,66.11,15.16,5.51,65.28,11.18,65.28-57.06s-32.8-103.22-50.37-98.32Z"/>
          <path class="cls-1" d="M50.84,122.35c4.7,4.7,6.29,27.89-3.29,44.32-21.53,36.95-42.12,23.9-42.12,23.9,0,0-17.01-8.88,9.13-39.59,20.56-24.16,29.77-35.13,36.27-28.63Z"/>
        </g>
        <path class="cls-1" d="M105.04,25.05S112.93,0,144.01,0c37.87,0,25.86,69.38-4.93,80.61-7.51,2.74-15.27-3.89-13.81-11.76,1.57-8.45,7.91-18.92,7.91-28.71,0-23.36-10.52-26.52-28.15-15.09Z"/>
      </g>
      <path class="cls-1" d="M803.81,41.12c-.9.78,2.02-41.12,41.41-41.12,28.17,0,26.9,33.55,26.9,47.42s-8.24,60.25-8.24,90.16c0,36.5,15.64,43.01,26.05,42.93,9.95-.08,23.55-6.78,23.55-31.09,0-33.19-31.76-51.89-31.76-60.34,0-5.9,26.88-15.77,35.83-2.53,1.89,2.8-11.06,1.68-11.06,8.18s33.76,18.51,33.54,62.03c-.22,42.55-26.24,51.94-56.5,51.94-25.33,0-40.85-8.77-48.1-21.53-9.39-16.54-7.48-37.7.47-88.54,10.94-69.89,1.18-86.5-32.09-57.5Z"/>
      <path class="cls-1" d="M607.69,84.7c0,35.9-38.18,121.93,1.81,121.93s31.77-65.51,30.13-123.63c-.08-2.82.08-2.71,19.53-4.93,8.8-1,18.16-3.55,23.06-7.89,5.77-5.11,4.79-16.63-1.71-20.77-5.24-3.34-13.14-2.43-20.96-1.35-14.64,2.01-18.32,4.44-21.47,4.84-1.02.13,6.45-52.9-14.77-52.9-7.16,0-9.41,32.95-11.64,45.07-1.71,9.32-2.36,11.22-2.36,11.22,0,0-53.67,7.33-53.67,24.6,0,22.45,52.05-1.47,52.05,3.81Z"/>
      <path class="cls-1" d="M401.09,70.61c.56,23.39-8.28,48.4-13.43,60.75-11.52,27.59-39.62,76.68-16.54,76.94,17.58.19,33.22-46.84,57.81-79.45,16.45-21.81,38.48-40.04,54.22-37.52,15.89,2.55-18.04,86.01,8.51,108.34,26.56,22.33,50.04-11.82,56.29-21.9,5.7-9.2,29.64-58.66,19.19-56.57-4.27.85-44.16,46.49-51.73,39.27-7.57-7.22,12.21-87.13-16.54-94.52-34.99-8.99-64.94,29.86-68.22,28.16-3.32-1.72,15.05-47.96,4.8-47.71-6.76.16-34.74,8.31-34.36,24.22Z"/>
      <g>
        <path class="cls-1" d="M242.33,60.39c-1.51-.81-1.1-3.08.59-3.34,10.2-1.62,32.19-3.51,41.16,42.41,9.79,50.11,45.3,34.75,54.57,26.8,1.48-1.27,3.75-.15,3.67,1.79-.33,7.58-14.77,25.37-33.21,30.08-22.92,5.86-45.24-9.26-51.55-32.06-7.61-27.51-.29-57.64-15.23-65.67Z"/>
        <path class="cls-1" d="M333.71,10.01c-27.01,5.85-27.85,35.7-1.39,52.68,20.65,13.24,16.93,50.14,16.93,50.14,25-6.7,27.67-112.18-15.54-102.82Z"/>
      </g>
      <g>
        <path class="cls-1" d="M258.3,263.92c-5.83,4.75-10.34,8.81-13.56,12.18l-3.91-3.91c4.13-3.98,8.5-7.89,13.1-11.72l4.37,3.45ZM262.89,248.29c-1.23,1.69-1.84,2.84-1.84,3.45,0,.46.84,1.07,2.53,1.84,4.74,2.15,7.96,4.06,9.65,5.74,2.45,2.45,3.68,5.67,3.68,9.65s-1,6.97-2.99,8.96c-1.84,1.84-4.52,2.76-8.04,2.76-3.07,0-6.59-1-10.57-2.99l1.61-5.52c3.83,1.84,6.81,2.76,8.96,2.76,1.84,0,3.14-.38,3.9-1.15.92-.92,1.38-2.53,1.38-4.83,0-2.45-.69-4.37-2.07-5.74-1.84-1.84-3.91-3.29-6.2-4.37-3.68-1.69-5.9-2.91-6.67-3.68-.77-.77-1.15-1.84-1.15-3.22s.69-3.37,2.07-5.97l5.75,2.3ZM272.08,243.47c-7.35-2.6-12.56-4.82-15.62-6.66l2.76-4.6c4.9,2.61,10.03,4.68,15.4,6.2l-2.53,5.05ZM286.33,243.24c-3.07-2.45-5.83-4.29-8.27-5.51l2.3-2.76c3.22,1.69,5.98,3.53,8.27,5.52l-2.3,2.76ZM290.24,272.65c-4.29-6.58-8.12-11.49-11.49-14.7l4.13-2.99c4.9,4.6,8.81,9.42,11.72,14.48l-4.37,3.22ZM289.78,238.64c-3.07-2.45-5.82-4.29-8.27-5.52l2.3-2.76c3.22,1.69,5.97,3.53,8.27,5.52l-2.3,2.76Z"/>
        <path class="cls-1" d="M413.54,258.4c-3.83,0-7.12,2.3-9.88,6.89-1.69,2.76-3.37,6.28-5.06,10.57l-5.29-2.76c6.28-9.8,13.79-23.74,22.52-41.82l5.05,2.76c1.07,1.07.84,1.69-.69,1.84-3.22,4.75-7.05,11.26-11.49,19.53,2.6-1.07,4.9-1.61,6.89-1.61,1.84,0,3.29.54,4.37,1.61,1.07,1.07,1.76,3.22,2.07,6.44l1.38,8.73c.31,1.99,1.53,2.99,3.68,2.99,1.99,0,3.68-.69,5.05-2.07,2.91-2.91,5.21-8.65,6.89-17.23l5.05,2.53c-1.99,8.73-4.37,14.48-7.12,17.24-3.07,3.06-6.51,4.6-10.34,4.6-4.75,0-7.51-2.53-8.27-7.58l-1.61-9.88c-.31-1.84-1.38-2.76-3.22-2.76Z"/>
        <path class="cls-1" d="M551.32,279.31l-5.06-1.61c4.14-9.65,7.04-19.76,8.73-30.33-3.68.31-6.97.46-9.88.46l-.92-4.6c4.29,0,8.12-.15,11.49-.46.61-4.75,1.15-8.88,1.61-12.41l4.6.92c1.68.46,1.84,1.07.46,1.84-.46,1.84-1.07,4.9-1.84,9.19,3.52-.46,6.74-1.07,9.65-1.84l.92,4.6c-3.98.77-7.74,1.38-11.26,1.84-2.3,13.63-5.13,24.43-8.5,32.4ZM591.53,273.8v5.05h-10.11c-5.82,0-11.34-1.38-16.54-4.13l2.07-4.14c3.98,2.15,8.81,3.22,14.48,3.22h10.11ZM590.38,254.73c-8.89.31-15.86,1.53-20.91,3.68l-1.38-4.6c6.59-2.6,13.71-3.9,21.37-3.9l.92,4.82Z"/>
        <path class="cls-1" d="M738.5,267.82c-2.61-3.22-5.44-7.89-8.5-14.02.15,1.38.23,2.84.23,4.37,0,8.43-1.69,14.33-5.05,17.69-2.91,2.91-6.97,4.37-12.18,4.37-4.9,0-8.73-1.38-11.49-4.13-3.07-3.06-4.6-7.04-4.6-11.95,0-6.89,2.6-14.48,7.81-22.75-3.53.92-6.97,1.76-10.34,2.53l-1.15-5.52c7.2-.61,12.87-1.91,17.01-3.91l2.99,4.6c-1.23.31-2.15.92-2.76,1.84-5.67,8.43-8.5,15.71-8.5,21.83,0,4.13,1.15,7.35,3.45,9.65,1.68,1.69,4.37,2.53,8.04,2.53,3.37,0,5.97-.92,7.81-2.76,2.91-2.91,4.37-8.65,4.37-17.23,0-7.35-.54-13.33-1.61-17.92l5.75-.69c.15,3.68.92,7.43,2.3,11.26,1.84,4.9,5.36,10.27,10.57,16.08l-4.14,4.14ZM738.5,240.71c-3.07-2.45-5.82-4.29-8.27-5.52l2.3-2.76c2.91,1.53,5.67,3.37,8.27,5.51l-2.3,2.76ZM741.95,236.11c-3.07-2.45-5.83-4.29-8.27-5.52l2.3-2.76c2.91,1.53,5.66,3.37,8.27,5.52l-2.3,2.76Z"/>
      </g>
    </g>
  </g>
</svg>